<?xml version="1.0" standalone="no"?><svg xmlns="http://www.w3.org/2000/svg" viewBox="0 0 1440 320"><path fill="#f3f4f5" fill-opacity="0.5" d="M0,224L40,202.7C80,181,160,139,240,128C320,117,400,139,480,165.3C560,192,640,224,720,218.7C800,213,880,171,960,133.3C1040,96,1120,64,1200,48C1280,32,1360,32,1400,32L1440,32L1440,320L1400,320C1360,320,1280,320,1200,320C1120,320,1040,320,960,320C880,320,800,320,720,320C640,320,560,320,480,320C400,320,320,320,240,320C160,320,80,320,40,320L0,320Z"></path></svg>